<svg width="110" height="88" viewBox="0 0 110 88" fill="none" xmlns="http://www.w3.org/2000/svg">
<path d="M1.97845 0.7935C1.8644 0.253119 1.33388 -0.0924935 0.7935 0.0215535C0.253119 0.1356 -0.0924935 0.666119 0.0215535 1.2065L1 1L1.97845 0.7935ZM41.6732 43.5391L42.0817 42.6264L41.6732 43.5391ZM85.3684 35.9013L84.8893 36.779L85.3684 35.9013ZM53.5921 48.2735L52.6348 47.9843L53.5921 48.2735ZM108.948 82.7664C109.416 82.4731 109.558 81.856 109.264 81.388L104.486 73.7613C104.193 73.2932 103.576 73.1515 103.108 73.4448C102.64 73.738 102.498 74.3551 102.791 74.8231L107.039 81.6025L100.259 85.8499C99.7912 86.1431 99.6495 86.7602 99.9427 87.2282C100.236 87.6962 100.853 87.8379 101.321 87.5447L108.948 82.7664ZM1 1L0.0215535 1.2065C0.158893 1.85725 0.288382 2.49482 0.412513 3.12059L1.3934 2.92602L2.37429 2.73144C2.24897 2.09966 2.11783 1.45392 1.97845 0.7935L1 1ZM2.13784 6.77705L1.15609 6.96723C1.41472 8.3023 1.67364 9.59202 1.96214 10.8416L2.93651 10.6167L3.91088 10.3917C3.6306 9.17773 3.3771 7.91616 3.11959 6.58687L2.13784 6.77705ZM3.97011 14.3967L3.01978 14.708C3.43843 15.9863 3.93104 17.2358 4.53694 18.4697L5.43455 18.0289L6.33217 17.5882C5.77318 16.4498 5.31441 15.2884 4.92045 14.0855L3.97011 14.3967ZM7.43389 21.3965L6.61685 21.9731C7.35765 23.0228 8.2074 24.0655 9.18945 25.1116L9.91852 24.4271L10.6476 23.7427C9.72589 22.7609 8.93551 21.79 8.25094 20.8199L7.43389 21.3965ZM12.7591 27.1318L12.1072 27.89C13.0585 28.7081 14.1005 29.5335 15.2437 30.3711L15.8347 29.5645L16.4258 28.7579C15.3204 27.9479 14.3195 27.1546 13.4111 26.3736L12.7591 27.1318ZM19.0623 31.7846L18.5179 32.6235C19.5678 33.3047 20.6871 33.9967 21.8811 34.7018L22.3896 33.8408L22.8981 32.9797C21.7261 32.2876 20.6308 31.6104 19.6066 30.9457L19.0623 31.7846ZM25.8079 35.7825L25.3275 36.6595C26.4337 37.2655 27.5948 37.8821 28.8141 38.5107L29.2723 37.6219L29.7306 36.7331C28.5251 36.1115 27.3788 35.5028 26.2884 34.9055L25.8079 35.7825ZM32.7667 39.3782L32.3262 40.276C33.4631 40.8338 34.6448 41.4015 35.8731 41.9797L36.299 41.0749L36.725 40.1702C35.5057 39.5962 34.3338 39.0333 33.2071 38.4805L32.7667 39.3782ZM39.8581 42.7206L39.4443 43.6309C40.0411 43.9022 40.6478 44.1759 41.2647 44.4519L41.6732 43.5391L42.0817 42.6264C41.4682 42.3519 40.865 42.0798 40.2719 41.8102L39.8581 42.7206ZM41.6732 43.5391L41.2647 44.4519C41.939 44.7536 42.6069 45.0448 43.2683 45.3256L43.6592 44.4052L44.05 43.4847C43.4005 43.2089 42.7443 42.9229 42.0817 42.6264L41.6732 43.5391ZM47.6313 45.998L47.2785 46.9338C48.6675 47.4574 50.0255 47.9339 51.352 48.3659L51.6616 47.415L51.9712 46.4642C50.6744 46.0419 49.3452 45.5755 47.984 45.0623L47.6313 45.998ZM55.7685 48.6385L55.5083 49.6041C56.9614 49.9956 58.3722 50.3312 59.74 50.6147L59.9429 49.6355L60.1458 48.6563C58.8176 48.381 57.445 48.0546 56.0287 47.673L55.7685 48.6385ZM64.1458 50.3628L64.0095 51.3535C65.5228 51.5616 66.9748 51.7019 68.3646 51.7805L68.421 50.7821L68.4775 49.7837C67.1432 49.7083 65.7444 49.5733 64.2821 49.3721L64.1458 50.3628ZM72.7043 50.8243L72.7444 51.8235C74.3027 51.761 75.7634 51.6133 77.1241 51.3921L76.9637 50.4051L76.8032 49.418C75.5268 49.6255 74.1467 49.7657 72.6642 49.8251L72.7043 50.8243ZM81.1131 49.4026L81.4291 50.3514C82.9917 49.831 84.3625 49.193 85.5307 48.466L85.0024 47.617L84.474 46.768C83.4547 47.4024 82.2293 47.9769 80.7971 48.4538L81.1131 49.4026ZM88.1525 44.757L88.9717 45.3306C90.0048 43.8551 90.4717 42.2172 90.248 40.5898L89.2573 40.726L88.2666 40.8622C88.4107 41.9097 88.1275 43.0493 87.3334 44.1834L88.1525 44.757ZM87.1402 37.1144L87.7952 36.3587C87.2338 35.8721 86.5833 35.4252 85.8475 35.0235L85.3684 35.9013L84.8893 36.779C85.5132 37.1196 86.0432 37.4869 86.4853 37.87L87.1402 37.1144ZM85.3684 35.9013L85.8475 35.0235C85.233 34.6881 84.6196 34.3767 84.008 34.0891L83.5825 34.994L83.1569 35.899C83.7315 36.1691 84.3091 36.4623 84.8893 36.779L85.3684 35.9013ZM79.8648 33.5377L80.1635 32.5833C78.7961 32.1553 77.4439 31.8473 76.114 31.6565L75.972 32.6463L75.8299 33.6362C77.0488 33.8111 78.2964 34.0946 79.5661 34.492L79.8648 33.5377ZM71.985 32.4414L71.9411 31.4423C70.5135 31.5052 69.126 31.7113 67.7892 32.0558L68.0388 33.0242L68.2884 33.9926C69.4875 33.6835 70.7371 33.4973 72.029 33.4404L71.985 32.4414ZM64.3072 34.4355L63.8529 33.5447C62.6088 34.1791 61.4328 34.9499 60.3357 35.8496L60.9698 36.6228L61.6039 37.3961C62.5919 36.5859 63.6476 35.8944 64.7614 35.3264L64.3072 34.4355ZM58.1551 39.4506L57.3812 38.8173C56.5223 39.867 55.7397 41.0181 55.0409 42.2642L55.9131 42.7533L56.7853 43.2424C57.4295 42.0937 58.147 41.0397 58.929 40.0839L58.1551 39.4506ZM54.2343 46.3768L53.2986 46.0241C53.059 46.6597 52.8375 47.3133 52.6348 47.9843L53.5921 48.2735L54.5494 48.5627C54.7394 47.9336 54.9466 47.3224 55.1701 46.7296L54.2343 46.3768ZM53.5921 48.2735L52.6348 47.9843C52.3946 48.7796 52.2858 49.5824 52.2993 50.3871L53.2991 50.3703L54.299 50.3536C54.2889 49.7545 54.3695 49.1582 54.5494 48.5627L53.5921 48.2735ZM54.4658 54.4031L53.588 54.8823C54.2601 56.1135 55.171 57.3194 56.2643 58.4943L56.9964 57.8131L57.7285 57.1319C56.7187 56.0467 55.917 54.9746 55.3435 53.924L54.4658 54.4031ZM60.1052 60.6938L59.4725 61.4682C60.5441 62.3438 61.7101 63.2068 62.9515 64.0541L63.5153 63.2282L64.0791 62.4023C62.8775 61.5821 61.7585 60.7533 60.738 59.9194L60.1052 60.6938ZM67.1018 65.5134L66.5887 66.3717C67.7888 67.0891 69.0361 67.7939 70.3185 68.4838L70.7923 67.6032L71.2661 66.7226C70.0074 66.0453 68.7865 65.3554 67.6149 64.655L67.1018 65.5134ZM74.5707 69.5465L74.1289 70.4436C75.3996 71.0694 76.6923 71.6806 77.9968 72.2753L78.4116 71.3654L78.8264 70.4555C77.5386 69.8684 76.2641 69.2658 75.0126 68.6494L74.5707 69.5465ZM82.3 73.0763L81.9089 73.9966C83.2268 74.5567 84.547 75.0987 85.8594 75.6208L86.229 74.6916L86.5987 73.7625C85.2999 73.2458 83.9941 72.7097 82.6911 72.1559L82.3 73.0763ZM90.1926 76.2185L89.8431 77.1554C91.2073 77.6641 92.5514 78.1484 93.8635 78.6062L94.1929 77.662L94.5223 76.7178C93.2233 76.2646 91.8925 75.7851 90.542 75.2815L90.1926 76.2185ZM98.2202 79.0176L97.9118 79.9689C99.3382 80.4313 100.705 80.855 101.995 81.2368L102.279 80.278L102.563 79.3192C101.29 78.9424 99.9395 78.5237 98.5285 78.0664L98.2202 79.0176ZM106.372 81.4182L106.122 82.3865C106.859 82.5768 107.551 82.7462 108.193 82.8936L108.417 81.9189L108.641 80.9443C108.019 80.8015 107.344 80.6365 106.623 80.45L106.372 81.4182Z" fill="#B0B6B8"/>
</svg>
