<svg width="119" height="50" viewBox="0 0 119 50" fill="none" xmlns="http://www.w3.org/2000/svg">
<path d="M1.14171 46.9716C0.594963 46.8936 0.0885083 47.2736 0.0105146 47.8204C-0.0674756 48.3671 0.312526 48.8736 0.859274 48.9516L1.00049 47.9616L1.14171 46.9716ZM65.7126 27.2971L65.4843 28.2707L65.7126 27.2971ZM115.765 0.708079C115.603 0.179931 115.044 -0.117301 114.516 0.0441875L105.91 2.67583C105.381 2.83731 105.084 3.39638 105.246 3.92452C105.407 4.45267 105.966 4.7499 106.494 4.58841L114.145 2.24918L116.484 9.89954C116.645 10.4277 117.204 10.7249 117.733 10.5634C118.261 10.4019 118.558 9.84288 118.397 9.31473L115.765 0.708079ZM1.00049 47.9616L0.859274 48.9516C1.54284 49.0491 2.21388 49.1321 2.87286 49.2011L2.97705 48.2065L3.08124 47.212C2.44754 47.1456 1.80119 47.0657 1.14171 46.9716L1.00049 47.9616ZM6.88249 48.4563L6.86139 49.4561C8.26564 49.4857 9.61065 49.4475 10.9019 49.3481L10.8252 48.3511L10.7485 47.354C9.52414 47.4482 8.24446 47.4849 6.90359 47.4566L6.88249 48.4563ZM14.7107 47.8396L14.8964 48.8222C16.2717 48.5623 17.5801 48.2299 18.8306 47.8363L18.5304 46.8824L18.2301 45.9286C17.0536 46.2989 15.8216 46.612 14.525 46.857L14.7107 47.8396ZM22.2017 45.4846L22.6109 46.397C23.8639 45.8352 25.0554 45.2149 26.1974 44.5523L25.6956 43.6873L25.1937 42.8224C24.1055 43.4537 22.9758 44.0415 21.7926 44.5721L22.2017 45.4846ZM29.0075 41.5695L29.5785 42.3905C30.6826 41.6224 31.7465 40.8258 32.7827 40.0199L32.1687 39.2305L31.5548 38.4411C30.5376 39.2323 29.5033 40.0065 28.4364 40.7486L29.0075 41.5695ZM35.2416 36.7754L35.8715 37.5521C36.8996 36.7183 37.9099 35.8967 38.926 35.0989L38.3084 34.3124L37.6909 33.5259C36.6596 34.3356 35.6355 35.1686 34.6118 35.9987L35.2416 36.7754ZM41.4595 31.9589L42.0329 32.7783C43.0901 32.0385 44.1634 31.3472 45.2702 30.7217L44.7782 29.8511L44.2862 28.9805C43.1125 29.6438 41.9844 30.3712 40.8862 31.1396L41.4595 31.9589ZM48.3153 28.1405L48.6874 29.0687C49.8344 28.609 51.029 28.2265 52.2862 27.9378L52.0625 26.9632L51.8387 25.9885C50.4743 26.3018 49.1806 26.7163 47.9433 27.2123L48.3153 28.1405ZM55.9534 26.3878L56.023 27.3854C57.2197 27.3018 58.4771 27.2992 59.805 27.3898L59.8731 26.3921L59.9412 25.3945C58.5247 25.2978 57.1752 25.3 55.8837 25.3902L55.9534 26.3878ZM63.7676 26.8895L63.5867 27.873C64.2047 27.9866 64.837 28.1189 65.4843 28.2707L65.7126 27.2971L65.9409 26.3235C65.2631 26.1645 64.5992 26.0256 63.9484 25.906L63.7676 26.8895ZM65.7126 27.2971L65.4843 28.2707C66.1302 28.4221 66.7679 28.5625 67.3974 28.692L67.5989 27.7125L67.8004 26.7331C67.1892 26.6073 66.5695 26.4709 65.9409 26.3235L65.7126 27.2971ZM71.3811 28.3729L71.2404 29.363C72.5729 29.5523 73.8668 29.6892 75.1239 29.7755L75.1924 28.7779L75.261 27.7802C74.0543 27.6973 72.8086 27.5657 71.5218 27.3829L71.3811 28.3729ZM79.036 28.8815L79.0529 29.8813C80.4077 29.8584 81.7166 29.7718 82.9823 29.6244L82.8667 28.6311L82.751 27.6379C81.5533 27.7773 80.3104 27.8598 79.0191 27.8816L79.036 28.8815ZM86.6479 27.9787L86.8738 28.9528C88.189 28.6478 89.4527 28.2714 90.6686 27.8281L90.3261 26.8886L89.9836 25.9491C88.8445 26.3643 87.6588 26.7177 86.422 27.0045L86.6479 27.9787ZM93.8407 25.3514L94.2981 26.2407C95.4814 25.6321 96.6143 24.9555 97.7015 24.2169L97.1397 23.3897L96.5778 22.5625C95.5551 23.2571 94.492 23.892 93.3834 24.4621L93.8407 25.3514ZM100.187 21.0571L100.837 21.8169C101.83 20.9682 102.781 20.0652 103.697 19.1142L102.977 18.4204L102.257 17.7266C101.382 18.6348 100.477 19.4932 99.5373 20.2972L100.187 21.0571ZM105.524 15.5467L106.298 16.1803C107.115 15.183 107.904 14.1466 108.67 13.0766L107.856 12.4947L107.043 11.9128C106.3 12.9511 105.537 13.9526 104.751 14.913L105.524 15.5467ZM110.006 9.31202L110.849 9.85116C111.539 8.7728 112.212 7.66779 112.872 6.54068L112.009 6.03545L111.146 5.53022C110.498 6.63743 109.839 7.71958 109.164 8.77288L110.006 9.31202ZM113.898 2.69121L114.775 3.17069C115.083 2.60787 115.388 2.04078 115.692 1.46992L114.809 1.00048L113.926 0.531043C113.625 1.09579 113.324 1.65616 113.02 2.21172L113.898 2.69121Z" fill="#B0B6B8"/>
</svg>
