<svg width="127" height="91" viewBox="0 0 127 91" fill="none" xmlns="http://www.w3.org/2000/svg">
<path d="M1.72596 0.311783C1.34592 -0.0889522 0.712984 -0.10573 0.312245 0.27431C-0.0884863 0.654348 -0.105264 1.28729 0.274775 1.68803L1.00037 0.999905L1.72596 0.311783ZM71.7955 20.1193L72.7058 19.7053L71.7955 20.1193ZM126.141 83.817C126.523 83.4178 126.508 82.7848 126.109 82.4032L119.604 76.1834C119.205 75.8017 118.572 75.8159 118.19 76.2151C117.809 76.6143 117.823 77.2473 118.222 77.629L124.004 83.1576L118.476 88.9398C118.094 89.339 118.108 89.972 118.507 90.3537C118.907 90.7354 119.54 90.7212 119.921 90.322L126.141 83.817ZM1.00037 0.999905L0.274775 1.68803C0.756677 2.19618 1.23704 2.6891 1.71584 3.16717L2.42241 2.45952L3.12897 1.75186C2.66329 1.2869 2.19561 0.807008 1.72596 0.311783L1.00037 0.999905ZM5.32047 5.18948L4.65735 5.93801C5.706 6.86699 6.74695 7.72671 7.7801 8.52132L8.38976 7.72865L8.99941 6.93597C8.00425 6.1706 6.99892 5.34045 5.98358 4.44096L5.32047 5.18948ZM11.6417 10.0326L11.0977 10.8717C12.2805 11.6386 13.4524 12.3233 14.6132 12.9323L15.0778 12.0467L15.5424 11.1612C14.4374 10.5815 13.3185 9.92799 12.1858 9.19354L11.6417 10.0326ZM18.6863 13.7126L18.3153 14.6412C19.6254 15.1646 20.9192 15.5964 22.196 15.9471L22.4609 14.9828L22.7257 14.0185C21.5207 13.6875 20.2978 13.2795 19.0573 12.7839L18.6863 13.7126ZM26.3635 15.8151L26.2119 16.8036C27.5926 17.0153 28.9497 17.1402 30.2824 17.1935L30.3224 16.1943L30.3623 15.1951C29.1003 15.1446 27.8179 15.0265 26.5151 14.8267L26.3635 15.8151ZM34.3136 16.1459L34.3755 17.144C35.7548 17.0585 37.1041 16.9085 38.4223 16.7135L38.276 15.7243L38.1296 14.735C36.86 14.9229 35.5674 15.0662 34.2517 15.1478L34.3136 16.1459ZM42.1977 15.008L42.4067 15.9859C43.7505 15.6988 45.0591 15.3821 46.329 15.0598L46.083 14.0906L45.837 13.1213C44.5811 13.44 43.299 13.7501 41.9887 14.0301L42.1977 15.008ZM49.9437 13.0858L50.1955 14.0536C51.5256 13.7075 52.802 13.3852 54.0319 13.1151L53.8174 12.1383L53.6029 11.1616C52.3341 11.4402 51.0274 11.7705 49.6918 12.118L49.9437 13.0858ZM57.748 11.4673L57.8546 12.4616C59.1896 12.3184 60.4364 12.2979 61.6037 12.4401L61.7246 11.4474L61.8455 10.4548C60.4884 10.2894 59.0832 10.3184 57.6414 10.473L57.748 11.4673ZM65.5139 12.599L65.0481 13.4839C66.0326 14.002 66.9743 14.7274 67.8712 15.7211L68.6135 15.0511L69.3559 14.3811C68.3128 13.2254 67.187 12.3495 65.9796 11.714L65.5139 12.599ZM70.8921 18.3144L70.0168 18.798C70.3128 19.3338 70.6024 19.9113 70.8852 20.5332L71.7955 20.1193L72.7058 19.7053C72.4032 19.0398 72.0905 18.4157 71.7674 17.8309L70.8921 18.3144ZM71.7955 20.1193L70.8852 20.5332C71.1671 21.1531 71.4402 21.781 71.7055 22.4164L72.6283 22.0312L73.5511 21.6459C73.2783 20.9924 72.9968 20.3453 72.7058 19.7053L71.7955 20.1193ZM74.1341 25.9254L73.193 26.2636C73.6557 27.5512 74.0953 28.8607 74.5187 30.1872L75.4714 29.8831L76.424 29.579C75.9947 28.234 75.5474 26.9013 75.0752 25.5872L74.1341 25.9254ZM76.6912 33.8766L75.7318 34.1586C76.1217 35.485 76.5024 36.8211 76.8806 38.1631L77.8431 37.8918L78.8056 37.6205C78.4265 36.2755 78.0436 34.9312 77.6506 33.5945L76.6912 33.8766ZM78.9723 41.913L78.0098 42.1842C78.3883 43.5277 78.771 44.8716 79.164 46.2093L80.1235 45.9274L81.0829 45.6455C80.6929 44.318 80.3125 42.9821 79.9348 41.6418L78.9723 41.913ZM81.3425 49.9231L80.3897 50.2267C80.8175 51.5694 81.2632 52.9014 81.7338 54.2165L82.6754 53.8795L83.6169 53.5426C83.1556 52.2535 82.7173 50.9441 82.2953 49.6195L81.3425 49.9231ZM84.1746 57.779L83.2508 58.1619C83.7949 59.4748 84.3734 60.7644 84.9939 62.024L85.891 61.5821L86.788 61.1402C86.1888 59.9238 85.628 58.674 85.0984 57.3961L84.1746 57.779ZM87.8838 65.2535L87.026 65.7675C87.7603 66.9929 88.5478 68.1801 89.397 69.3217L90.1993 68.7248L91.0017 68.1279C90.1954 67.0441 89.4446 65.9127 88.7416 64.7395L87.8838 65.2535ZM92.8759 71.9265L92.1479 72.6121C93.1217 73.6463 94.1642 74.6277 95.2835 75.5492L95.9191 74.7772L96.5547 74.0051C95.5031 73.1394 94.5221 72.2161 93.6039 71.241L92.8759 71.9265ZM99.3101 77.2167L98.78 78.0647C99.9636 78.8046 101.218 79.4861 102.551 80.1039L102.971 79.1968L103.392 78.2896C102.135 77.7063 100.953 77.0644 99.8402 76.3688L99.3101 77.2167ZM106.856 80.7324L106.541 81.6814C107.85 82.1163 109.222 82.4976 110.663 82.8221L110.882 81.8466L111.102 80.871C109.724 80.5605 108.415 80.1967 107.172 79.7834L106.856 80.7324ZM114.977 82.5843L114.84 83.5749C116.193 83.7616 117.598 83.9039 119.06 83.9997L119.125 83.0018L119.191 82.004C117.775 81.9111 116.417 81.7735 115.114 81.5937L114.977 82.5843ZM123.295 83.145L123.29 84.145C123.995 84.1484 124.712 84.142 125.441 84.1257L125.418 83.1259L125.396 82.1262C124.685 82.1421 123.986 82.1483 123.3 82.145L123.295 83.145Z" fill="#B0B6B8"/>
</svg>
