<svg width="133" height="94" viewBox="0 0 133 94" fill="none" xmlns="http://www.w3.org/2000/svg">
<path d="M1.81417 92.931C1.49317 93.3804 0.868624 93.4845 0.419205 93.1635C-0.0302149 92.8425 -0.13432 92.218 0.18668 91.7686L1.00043 92.3498L1.81417 92.931ZM33 59.5869L33.5744 60.4055L33 59.5869ZM54.2676 59.5869L53.2901 59.7976L54.2676 59.5869ZM131.48 2.50451C132.011 2.65582 132.319 3.20908 132.168 3.74023L129.702 12.3958C129.551 12.927 128.997 13.2349 128.466 13.0836C127.935 12.9323 127.627 12.379 127.779 11.8479L129.97 4.15399L122.277 1.96211C121.745 1.81079 121.438 1.25754 121.589 0.726396C121.74 0.195238 122.293 -0.112674 122.825 0.0386445L131.48 2.50451ZM1.00043 92.3498L0.18668 91.7686C0.563719 91.2407 0.940322 90.7196 1.31638 90.2052L2.12368 90.7953L2.93097 91.3855C2.55924 91.894 2.18694 92.4091 1.81417 92.931L1.00043 92.3498ZM4.42132 87.7253L3.62756 87.117C4.42515 86.0762 5.21923 85.0651 6.00877 84.0832L6.78809 84.7098L7.56742 85.3364C6.78762 86.3063 6.00315 87.305 5.21507 88.3335L4.42132 87.7253ZM9.22753 81.7497L8.46362 81.1043C9.31369 80.0981 10.157 79.1256 10.9922 78.1859L11.7397 78.8502L12.4871 79.5145C11.663 80.4418 10.8306 81.4016 9.99143 82.395L9.22753 81.7497ZM14.3235 76.0181L13.5937 75.3344C14.4984 74.3686 15.3914 73.4419 16.2707 72.553L16.9816 73.2562L17.6926 73.9595C16.8259 74.8356 15.9455 75.7493 15.0534 76.7017L14.3235 76.0181ZM19.7163 70.5689L19.0257 69.8457C19.9918 68.9231 20.9377 68.0478 21.8606 67.2179L22.5293 67.9614L23.1979 68.705C22.2897 69.5218 21.3584 70.3835 20.4069 71.2921L19.7163 70.5689ZM25.4197 65.4428L24.7749 64.6785C25.8117 63.8037 26.8116 62.9905 27.7699 62.2356L28.3887 63.0211L29.0076 63.8066C28.0665 64.548 27.084 65.3471 26.0646 66.2071L25.4197 65.4428ZM31.4431 60.702L30.8531 59.8946C31.3965 59.4975 31.9211 59.1224 32.4256 58.7683L33 59.5869L33.5744 60.4055C33.0801 60.7523 32.566 61.12 32.0332 61.5094L31.4431 60.702ZM33 59.5869L32.4256 58.7683C32.9581 58.3947 33.6374 58.0139 34.4249 57.6325L34.8608 58.5326L35.2966 59.4326C34.5626 59.7881 33.987 60.1159 33.5744 60.4055L33 59.5869ZM38.8167 56.9131L38.4801 55.9715C39.7369 55.5222 41.1239 55.0716 42.6095 54.6319L42.8933 55.5908L43.1772 56.5496C41.7224 56.9803 40.371 57.4195 39.1532 57.8548L38.8167 56.9131ZM47.027 54.4631L46.7834 53.4932C48.1432 53.1517 49.5536 52.8247 50.9971 52.5191L51.2043 53.4974L51.4114 54.4757C49.9923 54.7761 48.6062 55.0976 47.2706 55.433L47.027 54.4631ZM55.4104 52.6883L55.2401 51.703C56.6554 51.4583 58.086 51.239 59.5168 51.0511L59.647 52.0426L59.7772 53.0341C58.3748 53.2183 56.971 53.4334 55.5808 53.6737L55.4104 52.6883ZM63.9092 51.582L63.8259 50.5855C65.292 50.463 66.7436 50.3808 68.1636 50.3458L68.1882 51.3455L68.2129 52.3452C66.836 52.3791 65.4238 52.459 63.9924 52.5785L63.9092 51.582ZM72.4725 51.3992L72.5266 50.4007C74.0532 50.4834 75.521 50.6379 76.9029 50.8762L76.733 51.8617L76.563 52.8471C75.2705 52.6242 73.8814 52.477 72.4184 52.3977L72.4725 51.3992ZM80.8652 52.9572L81.2237 52.0237C82.7571 52.6125 84.1156 53.3842 85.2091 54.3817L84.5352 55.1205L83.8612 55.8593C82.9957 55.0697 81.87 54.4142 80.5068 53.8907L80.8652 52.9572ZM86.7295 58.7151L87.6977 58.4647C87.8908 59.2114 87.9888 60.0062 87.9888 60.8487L86.9888 60.8488L85.9888 60.8489C85.9888 60.1621 85.9091 59.5364 85.7614 58.9655L86.7295 58.7151ZM86.9888 60.8488L87.9888 60.8487C87.9889 61.5602 87.9439 62.2458 87.8561 62.9052L86.8648 62.7732L85.8736 62.6412C85.9492 62.073 85.9889 61.4758 85.9888 60.8489L86.9888 60.8488ZM85.7797 66.4386L86.6781 66.8778C86.0454 68.1722 85.2062 69.2947 84.2096 70.2459L83.5191 69.5226L82.8287 68.7992C83.6604 68.0053 84.3562 67.0736 84.8813 65.9995L85.7797 66.4386ZM80.3622 71.687L80.7978 72.5872C79.5892 73.1721 78.2847 73.6005 76.9269 73.8792L76.7259 72.8996L76.5248 71.92C77.7354 71.6716 78.8805 71.2931 79.9266 70.7869L80.3622 71.687ZM72.9065 73.2739L72.9049 74.2739C71.5778 74.2717 70.2325 74.1452 68.8999 73.8967L69.0832 72.9137L69.2664 71.9306C70.4816 72.1571 71.7054 72.272 72.9082 72.274L72.9065 73.2739ZM65.3874 71.8769L65.032 72.8116C63.7789 72.335 62.564 71.7424 61.4174 71.0343L61.9428 70.1834L62.4683 69.3326C63.5024 69.9712 64.6028 70.5086 65.7429 70.9422L65.3874 71.8769ZM58.9038 67.8416L58.2121 68.5638C57.2402 67.6329 56.3651 66.5887 55.6178 65.4327L56.4577 64.8898L57.2975 64.347C57.9561 65.3658 58.7302 66.2907 59.5955 67.1195L58.9038 67.8416ZM54.7828 61.4409L53.8369 61.7655C53.6195 61.1319 53.4363 60.4758 53.2901 59.7976L54.2676 59.5869L55.2452 59.3762C55.3748 59.9775 55.5369 60.5575 55.7286 61.1164L54.7828 61.4409ZM54.2676 59.5869L53.2901 59.7976C53.127 59.0411 53.08 58.2693 53.1373 57.4882L54.1346 57.5614L55.1319 57.6346C55.0876 58.2385 55.1249 58.8184 55.2452 59.3762L54.2676 59.5869ZM55.2725 53.6753L54.3737 53.2369C54.9565 52.0421 55.7264 50.8326 56.6508 49.6154L57.4472 50.2202L58.2435 50.825C57.3793 51.9631 56.6846 53.0613 56.1712 54.1138L55.2725 53.6753ZM60.111 47.1217L59.3872 46.4316C60.3003 45.4742 61.2972 44.5089 62.3667 43.5388L63.0385 44.2794L63.7104 45.0201C62.6713 45.9627 61.7097 46.8942 60.8347 47.8118L60.111 47.1217ZM66.1322 41.6211L65.4991 40.8471C66.5353 39.9994 67.6199 39.1489 68.7461 38.2974L69.3492 39.0951L69.9523 39.8928C68.8442 40.7305 67.7798 41.5653 66.7654 42.3951L66.1322 41.6211ZM72.6511 36.6783L72.0721 35.863C73.1701 35.0833 74.2979 34.3041 75.4505 33.5266L76.0097 34.3557L76.5689 35.1847C75.4285 35.9539 74.3139 36.7241 73.2301 37.4937L72.6511 36.6783ZM79.4161 32.1083L78.8734 31.2683C80.011 30.5334 81.1667 29.8013 82.3361 29.0732L82.8646 29.9222L83.3932 30.7711C82.2325 31.4937 81.0863 32.2198 79.9587 32.9483L79.4161 32.1083ZM86.3475 27.7889L85.8311 26.9325C86.9973 26.2293 88.1727 25.531 89.353 24.839L89.8588 25.7016L90.3646 26.5643C89.1909 27.2525 88.0226 27.9465 86.8639 28.6452L86.3475 27.7889ZM93.3941 23.6546L92.8976 22.7866C94.086 22.1067 95.2754 21.4342 96.4616 20.7703L96.95 21.6429L97.4384 22.5155C96.2573 23.1766 95.0733 23.8461 93.8907 24.5226L93.3941 23.6546ZM100.523 19.6623L100.042 18.7857C101.25 18.1228 102.449 17.4701 103.637 16.829L104.112 17.7089L104.587 18.5888C103.403 19.2279 102.208 19.8783 101.005 20.5388L100.523 19.6623ZM107.712 15.7796L107.242 14.8968C108.467 14.2451 109.673 13.6078 110.855 12.9864L111.32 13.8716L111.786 14.7568C110.606 15.3767 109.403 16.0125 108.182 16.6624L107.712 15.7796ZM114.931 11.9831L114.469 11.0962C115.72 10.4444 116.936 9.81426 118.107 9.20794L118.567 10.096L119.026 10.9841C117.856 11.59 116.642 12.2193 115.393 12.8701L114.931 11.9831ZM122.202 8.21632L121.742 7.32807C123.024 6.66514 124.231 6.04006 125.351 5.45606L125.813 6.3428L126.276 7.22953C125.153 7.81512 123.943 8.44146 122.661 9.10456L122.202 8.21632ZM129.424 4.43798L128.952 3.55688C129.597 3.21068 130.187 2.88882 130.72 2.59245L131.206 3.46624L131.692 4.34003C131.149 4.64262 130.549 4.96949 129.897 5.31907L129.424 4.43798Z" fill="#B0B6B8"/>
</svg>
