<svg xmlns:xlink="http://www.w3.org/1999/xlink" viewBox="0 0 690.7689441 728.0635993625497" style="max-height: 500px" version="1.1" xml:space="preserve" xmlns="http://www.w3.org/2000/svg" width="690.7689441" height="728.0635993625497">
 <defs>
  <style type="text/css">
   
    .fil5 {fill:#00705F;fill-rule:nonzero}
    .fil6 {fill:#0082C9;fill-rule:nonzero}
    .fil4 {fill:#005A9F;fill-rule:nonzero}
    .fil0 {fill:url(#id0);fill-rule:nonzero}
    .fil1 {fill:url(#id1);fill-rule:nonzero}
    .fil2 {fill:url(#id2);fill-rule:nonzero}
    .fil3 {fill:url(#id3);fill-rule:nonzero}
   
  </style>
  <linearGradient y2="281.81" x2="342.35" y1="281.81" x1="-0.38" gradientUnits="userSpaceOnUse" id="id0">
   <stop style="stop-opacity:1; stop-color:#2FAFCC" offset="0"/>
   <stop style="stop-opacity:1; stop-color:#1FB583" offset="1"/>
  </linearGradient>
  <linearGradient y2="281.81" x2="684.04" y1="281.81" x1="341.86" gradientUnits="userSpaceOnUse" id="id1">
   <stop style="stop-opacity:1; stop-color:#2FAFCC" offset="0"/>
   <stop style="stop-opacity:1; stop-color:#80D1EB" offset="1"/>
  </linearGradient>
  <linearGradient y2="734.61" x2="341.96" y1="285.51" x1="341.96" gradientUnits="userSpaceOnUse" id="id2">
   <stop style="stop-opacity:1; stop-color:#0077BF" offset="0"/>
   <stop style="stop-opacity:1; stop-color:#180F56" offset="1"/>
  </linearGradient>
  <linearGradient y2="88.21" x2="407.41" y1="88.21" x1="276.5" xlink:href="#id1" gradientUnits="userSpaceOnUse" id="id3">
  </linearGradient>
 </defs>
 <g id="Layer_x0020_1">
  <metadata id="CorelCorpID_0Corel-Layer"/>
  <g id="_3115377765888">
   <g>
    <path d="M174.4 433.43c44.8,-68.9 101.79,-128.64 167.57,-176.9 -97.61,-71.64 -214.75,-116.99 -341.97,-126.34l174.4 303.23z" class="fil0"/>
    <path d="M341.97 256.54c65.76,48.26 122.74,108 167.56,176.9l174.4 -303.23c-127.23,9.35 -244.35,54.7 -341.96,126.34z" class="fil1"/>
    <path d="M174.4 433.43l167.57 291.34 167.56 -291.34c-44.82,-68.9 -101.8,-128.64 -167.56,-176.9 -65.78,48.26 -122.77,108 -167.57,176.9z" class="fil2"/>
    <path d="M276.55 88.21c0,48.72 29.29,88.21 65.41,88.21 36.13,0 65.41,-39.49 65.41,-88.21 0,-48.71 -29.28,-88.21 -65.41,-88.21 -36.12,0 -65.41,39.49 -65.41,88.21z" class="fil3"/>
   </g>
   <path d="M1087.33 66.64l0 232.68 -56.68 0 0 -139.54 -52.04 139.54 -45.74 0 -52.37 -139.87 0 139.87 -56.68 0 0 -232.68 66.95 0 65.3 161.08 64.63 -161.08 66.62 0zm114.56 45.41l0 47.07 75.9 0 0 43.75 -75.9 0 0 51.04 85.85 0 0 45.41 -142.53 0 0 -232.68 142.53 0 0 45.41 -85.85 0zm226.92 -45.41c24.53,0 45.96,4.86 64.3,14.58 18.34,9.72 32.54,23.37 42.59,40.94 10.06,17.57 15.08,37.84 15.08,60.82 0,22.76 -5.03,42.98 -15.08,60.66 -10.05,17.68 -24.3,31.38 -42.75,41.1 -18.46,9.72 -39.83,14.59 -64.14,14.59l-87.18 0 0 -232.68 87.18 0zm-3.65 183.62c21.43,0 38.12,-5.85 50.05,-17.57 11.93,-11.71 17.9,-28.28 17.9,-49.72 0,-21.43 -5.97,-38.12 -17.9,-50.05 -11.93,-11.93 -28.62,-17.9 -50.05,-17.9l-26.85 0 0 135.23 26.85 0zm231.23 -183.62l0 232.68 -56.68 0 0 -232.68 56.68 0zm276.64 0l-82.53 232.68 -70.93 0 -82.53 -232.68 60.33 0 57.67 175.67 58 -175.67 59.99 0zm97.32 45.41l0 47.07 75.9 0 0 43.75 -75.9 0 0 51.04 85.85 0 0 45.41 -142.53 0 0 -232.68 142.53 0 0 45.41 -85.85 0zm258.41 187.27l-48.39 -87.84 -13.59 0 0 87.84 -56.68 0 0 -232.68 95.13 0c18.34,0 33.97,3.2 46.9,9.61 12.92,6.41 22.59,15.19 29,26.35 6.4,11.16 9.61,23.58 9.61,37.29 0,15.47 -4.36,29.28 -13.09,41.43 -8.73,12.15 -21.6,20.77 -38.61,25.86l53.69 92.14 -63.97 0zm-61.98 -127.94l35.13 0c10.38,0 18.17,-2.54 23.37,-7.63 5.19,-5.08 7.79,-12.26 7.79,-21.54 0,-8.84 -2.59,-15.8 -7.79,-20.89 -5.19,-5.08 -12.98,-7.62 -23.37,-7.62l-35.13 0 0 57.67zm260.73 130.26c-17.01,0 -32.26,-2.76 -45.74,-8.29 -13.48,-5.52 -24.25,-13.7 -32.32,-24.53 -8.06,-10.82 -12.32,-23.86 -12.76,-39.11l60.33 0c0.88,8.62 3.86,15.19 8.95,19.72 5.08,4.53 11.71,6.8 19.88,6.8 8.4,0 15.03,-1.93 19.89,-5.8 4.86,-3.86 7.29,-9.22 7.29,-16.07 0,-5.74 -1.93,-10.5 -5.8,-14.25 -3.87,-3.76 -8.62,-6.85 -14.25,-9.28 -5.64,-2.43 -13.65,-5.19 -24.03,-8.28 -15.03,-4.64 -27.29,-9.28 -36.79,-13.92 -9.5,-4.64 -17.68,-11.49 -24.53,-20.55 -6.85,-9.06 -10.27,-20.88 -10.27,-35.47 0,-21.65 7.84,-38.61 23.53,-50.88 15.69,-12.26 36.13,-18.4 61.32,-18.4 25.63,0 46.3,6.13 61.98,18.4 15.69,12.26 24.09,29.33 25.19,51.21l-61.32 0c-0.45,-7.52 -3.2,-13.42 -8.29,-17.74 -5.08,-4.31 -11.6,-6.46 -19.56,-6.46 -6.85,0 -12.37,1.82 -16.57,5.47 -4.2,3.65 -6.3,8.9 -6.3,15.75 0,7.51 3.54,13.37 10.61,17.57 7.07,4.2 18.12,8.73 33.15,13.59 15.02,5.08 27.23,9.94 36.62,14.58 9.39,4.64 17.51,11.38 24.36,20.22 6.85,8.84 10.27,20.22 10.27,34.14 0,13.26 -3.37,25.3 -10.11,36.13 -6.74,10.82 -16.52,19.44 -29.33,25.85 -12.81,6.41 -27.95,9.61 -45.41,9.61zm281.61 -43.42l-86.84 0 -13.92 41.1 -59.33 0 84.19 -232.68 65.63 0 84.19 232.68 -59.99 0 -13.92 -41.1zm-14.59 -43.75l-28.84 -85.18 -28.5 85.18 57.34 0zm187.81 41.1l74.25 0 0 43.75 -130.93 0 0 -232.68 56.68 0 0 188.93z" class="fil4"/>
   <path d="M914.65 584.72c-17.01,0 -32.26,-2.76 -45.74,-8.29 -13.48,-5.52 -24.25,-13.7 -32.32,-24.53 -8.06,-10.82 -12.32,-23.86 -12.76,-39.11l60.33 0c0.88,8.62 3.86,15.19 8.95,19.72 5.08,4.53 11.71,6.8 19.88,6.8 8.4,0 15.03,-1.93 19.89,-5.8 4.86,-3.86 7.29,-9.22 7.29,-16.07 0,-5.74 -1.93,-10.5 -5.8,-14.25 -3.87,-3.76 -8.62,-6.85 -14.25,-9.28 -5.64,-2.43 -13.65,-5.19 -24.03,-8.28 -15.03,-4.64 -27.29,-9.28 -36.79,-13.92 -9.5,-4.64 -17.68,-11.49 -24.53,-20.55 -6.85,-9.06 -10.27,-20.88 -10.27,-35.47 0,-21.65 7.84,-38.61 23.53,-50.88 15.69,-12.26 36.13,-18.4 61.32,-18.4 25.63,0 46.3,6.13 61.98,18.4 15.69,12.26 24.09,29.33 25.19,51.21l-61.32 0c-0.45,-7.52 -3.2,-13.42 -8.29,-17.74 -5.08,-4.31 -11.6,-6.46 -19.56,-6.46 -6.85,0 -12.37,1.82 -16.57,5.47 -4.2,3.65 -6.3,8.9 -6.3,15.75 0,7.51 3.54,13.37 10.61,17.57 7.07,4.2 18.12,8.73 33.15,13.59 15.02,5.08 27.23,9.94 36.62,14.58 9.39,4.64 17.51,11.38 24.36,20.22 6.85,8.84 10.27,20.22 10.27,34.14 0,13.26 -3.37,25.3 -10.11,36.13 -6.74,10.82 -16.52,19.44 -29.33,25.85 -12.81,6.41 -27.95,9.61 -45.41,9.61zm193.45 -235l0 232.68 -56.68 0 0 -232.68 56.68 0zm321.71 0l0 232.68 -56.68 0 0 -139.54 -52.04 139.54 -45.74 0 -52.37 -139.87 0 139.87 -56.68 0 0 -232.68 66.95 0 65.3 161.08 64.63 -161.08 66.62 0zm176.54 232.68l-48.39 -87.84 -13.59 0 0 87.84 -56.68 0 0 -232.68 95.13 0c18.34,0 33.97,3.2 46.9,9.61 12.92,6.41 22.59,15.19 29,26.35 6.4,11.16 9.61,23.58 9.61,37.29 0,15.47 -4.36,29.28 -13.09,41.43 -8.73,12.15 -21.6,20.77 -38.61,25.86l53.69 92.14 -63.97 0zm-61.98 -127.94l35.13 0c10.38,0 18.17,-2.54 23.37,-7.63 5.19,-5.08 7.79,-12.26 7.79,-21.54 0,-8.84 -2.59,-15.8 -7.79,-20.89 -5.19,-5.08 -12.98,-7.62 -23.37,-7.62l-35.13 0 0 57.67zm321.39 86.84l-86.84 0 -13.92 41.1 -59.33 0 84.19 -232.68 65.63 0 84.19 232.68 -59.99 0 -13.92 -41.1zm-14.59 -43.75l-28.84 -85.18 -28.5 85.18 57.34 0zm339.29 84.85l-56.68 0 -94.8 -143.52 0 143.52 -56.68 0 0 -232.68 56.68 0 94.8 144.18 0 -144.18 56.68 0 0 232.68z" class="fil5"/>
   <path d="M919.75 663.59l0 93.74 -12.33 0 0 -69.9 -31.16 69.9 -8.67 0 -31.29 -70.03 0 70.03 -12.32 0 0 -93.74 13.28 0 34.68 77.49 34.68 -77.49 13.14 0zm32.92 -0.67l0 59.74c0,8.4 2.05,14.63 6.16,18.69 4.11,4.06 9.82,6.1 17.14,6.1 7.23,0 12.89,-2.03 17,-6.1 4.11,-4.06 6.17,-10.29 6.17,-18.69l0 -59.74 12.33 0 0 59.6c0,7.86 -1.58,14.48 -4.74,19.85 -3.16,5.37 -7.43,9.37 -12.8,11.99 -5.37,2.62 -11.4,3.93 -18.08,3.93 -6.68,0 -12.71,-1.31 -18.08,-3.93 -5.37,-2.62 -9.62,-6.61 -12.73,-11.99 -3.12,-5.37 -4.67,-11.99 -4.67,-19.85l0 -59.6 12.33 0zm91.71 84.39l33.06 0 0 10.03 -45.38 0 0 -94.42 12.32 0 0 84.39zm104.31 -84.39l0 10.02 -25.74 0 0 84.4 -12.33 0 0 -84.4 -25.88 0 0 -10.02 63.94 0zm27.5 0l0 94.42 -12.32 0 0 -94.42 12.32 0zm87.11 95.37c-6.23,0 -11.81,-1.11 -16.73,-3.32 -4.92,-2.21 -8.78,-5.28 -11.58,-9.21 -2.8,-3.93 -4.24,-8.46 -4.34,-13.61l13.14 0c0.45,4.43 2.28,8.15 5.49,11.18 3.2,3.03 7.88,4.54 14.02,4.54 5.87,0 10.5,-1.47 13.89,-4.41 3.39,-2.93 5.08,-6.71 5.08,-11.31 0,-3.61 -0.99,-6.55 -2.98,-8.81 -1.98,-2.26 -4.47,-3.97 -7.45,-5.14 -2.98,-1.18 -7,-2.44 -12.06,-3.8 -6.23,-1.63 -11.22,-3.25 -14.97,-4.88 -3.75,-1.63 -6.96,-4.18 -9.62,-7.65 -2.66,-3.48 -3.99,-8.15 -3.99,-14.02 0,-5.15 1.31,-9.71 3.93,-13.68 2.61,-3.97 6.3,-7.04 11.04,-9.21 4.74,-2.17 10.18,-3.25 16.32,-3.25 8.85,0 16.1,2.21 21.74,6.64 5.65,4.43 8.83,10.29 9.55,17.61l-13.55 0c-0.45,-3.61 -2.35,-6.8 -5.69,-9.55 -3.34,-2.76 -7.77,-4.13 -13.28,-4.13 -5.15,0 -9.35,1.33 -12.6,3.99 -3.25,2.66 -4.88,6.39 -4.88,11.18 0,3.43 0.97,6.23 2.91,8.4 1.94,2.17 4.34,3.82 7.18,4.95 2.85,1.13 6.84,2.42 11.99,3.86 6.23,1.72 11.24,3.41 15.04,5.08 3.8,1.67 7.04,4.25 9.75,7.72 2.71,3.48 4.06,8.2 4.06,14.16 0,4.6 -1.22,8.94 -3.66,13 -2.44,4.06 -6.05,7.36 -10.84,9.89 -4.78,2.53 -10.43,3.79 -16.93,3.79zm61.64 -95.37l0 59.74c0,8.4 2.05,14.63 6.16,18.69 4.11,4.06 9.82,6.1 17.14,6.1 7.23,0 12.89,-2.03 17,-6.1 4.11,-4.06 6.17,-10.29 6.17,-18.69l0 -59.74 12.33 0 0 59.6c0,7.86 -1.58,14.48 -4.74,19.85 -3.16,5.37 -7.43,9.37 -12.8,11.99 -5.37,2.62 -11.4,3.93 -18.08,3.93 -6.68,0 -12.71,-1.31 -18.08,-3.93 -5.37,-2.62 -9.62,-6.61 -12.73,-11.99 -3.12,-5.37 -4.67,-11.99 -4.67,-19.85l0 -59.6 12.33 0zm142.51 27.63c0,7.86 -2.68,14.38 -8.06,19.58 -5.37,5.19 -13.57,7.79 -24.59,7.79l-18.15 0 0 39.42 -12.32 0 0 -94.42 30.48 0c10.66,0 18.76,2.57 24.32,7.72 5.55,5.15 8.33,11.79 8.33,19.91zm-32.65 17.2c6.87,0 11.92,-1.49 15.18,-4.47 3.25,-2.98 4.88,-7.22 4.88,-12.73 0,-11.65 -6.68,-17.47 -20.05,-17.47l-18.15 0 0 34.68 18.15 0zm60.28 -34.82l0 31.57 34.41 0 0 10.16 -34.41 0 0 32.51 38.47 0 0 10.16 -50.8 0 0 -94.56 50.8 0 0 10.16 -38.47 0zm106.89 84.4l-22.49 -38.61 -14.9 0 0 38.61 -12.32 0 0 -94.42 30.48 0c7.14,0 13.17,1.22 18.09,3.66 4.92,2.44 8.6,5.73 11.04,9.89 2.44,4.16 3.66,8.9 3.66,14.22 0,6.5 -1.87,12.24 -5.62,17.2 -3.75,4.97 -9.37,8.27 -16.86,9.89l23.7 39.55 -14.76 0zm-37.39 -48.5l18.15 0c6.69,0 11.7,-1.65 15.04,-4.94 3.34,-3.3 5.02,-7.7 5.02,-13.21 0,-5.6 -1.65,-9.93 -4.95,-13 -3.29,-3.07 -8.33,-4.6 -15.11,-4.6l-18.15 0 0 35.76zm136.15 49.45c-6.23,0 -11.81,-1.11 -16.73,-3.32 -4.92,-2.21 -8.78,-5.28 -11.58,-9.21 -2.8,-3.93 -4.24,-8.46 -4.34,-13.61l13.14 0c0.45,4.43 2.28,8.15 5.49,11.18 3.2,3.03 7.88,4.54 14.02,4.54 5.87,0 10.5,-1.47 13.89,-4.41 3.39,-2.93 5.08,-6.71 5.08,-11.31 0,-3.61 -0.99,-6.55 -2.98,-8.81 -1.98,-2.26 -4.47,-3.97 -7.45,-5.14 -2.98,-1.18 -7,-2.44 -12.06,-3.8 -6.23,-1.63 -11.22,-3.25 -14.97,-4.88 -3.75,-1.63 -6.96,-4.18 -9.62,-7.65 -2.66,-3.48 -3.99,-8.15 -3.99,-14.02 0,-5.15 1.31,-9.71 3.93,-13.68 2.61,-3.97 6.3,-7.04 11.04,-9.21 4.74,-2.17 10.18,-3.25 16.32,-3.25 8.85,0 16.1,2.21 21.74,6.64 5.65,4.43 8.83,10.29 9.55,17.61l-13.55 0c-0.45,-3.61 -2.35,-6.8 -5.69,-9.55 -3.34,-2.76 -7.77,-4.13 -13.28,-4.13 -5.15,0 -9.35,1.33 -12.6,3.99 -3.25,2.66 -4.88,6.39 -4.88,11.18 0,3.43 0.97,6.23 2.91,8.4 1.94,2.17 4.34,3.82 7.18,4.95 2.85,1.13 6.84,2.42 11.99,3.86 6.23,1.72 11.24,3.41 15.04,5.08 3.8,1.67 7.04,4.25 9.75,7.72 2.71,3.48 4.06,8.2 4.06,14.16 0,4.6 -1.22,8.94 -3.66,13 -2.44,4.06 -6.05,7.36 -10.84,9.89 -4.78,2.53 -10.43,3.79 -16.93,3.79zm112.71 -67.73c0,7.86 -2.68,14.38 -8.06,19.58 -5.37,5.19 -13.57,7.79 -24.59,7.79l-18.15 0 0 39.42 -12.32 0 0 -94.42 30.48 0c10.66,0 18.76,2.57 24.32,7.72 5.55,5.15 8.33,11.79 8.33,19.91zm-32.65 17.2c6.87,0 11.92,-1.49 15.18,-4.47 3.25,-2.98 4.88,-7.22 4.88,-12.73 0,-11.65 -6.68,-17.47 -20.05,-17.47l-18.15 0 0 34.68 18.15 0zm60.28 -34.82l0 31.57 34.41 0 0 10.16 -34.41 0 0 32.51 38.47 0 0 10.16 -50.8 0 0 -94.56 50.8 0 0 10.16 -38.47 0zm52.56 37.12c0,-9.21 2.08,-17.5 6.23,-24.85 4.16,-7.36 9.82,-13.12 17,-17.27 7.18,-4.15 15.15,-6.23 23.91,-6.23 10.29,0 19.28,2.49 26.96,7.45 7.67,4.97 13.28,12.01 16.79,21.13l-14.76 0c-2.62,-5.69 -6.39,-10.07 -11.31,-13.14 -4.92,-3.07 -10.82,-4.61 -17.68,-4.61 -6.59,0 -12.51,1.54 -17.75,4.61 -5.24,3.07 -9.35,7.43 -12.33,13.07 -2.98,5.65 -4.47,12.26 -4.47,19.84 0,7.5 1.49,14.06 4.47,19.71 2.98,5.65 7.09,10 12.33,13.07 5.23,3.07 11.15,4.61 17.75,4.61 6.86,0 12.75,-1.51 17.68,-4.54 4.92,-3.03 8.69,-7.38 11.31,-13.07l14.76 0c-3.52,9.03 -9.12,16.01 -16.79,20.93 -7.68,4.92 -16.66,7.38 -26.96,7.38 -8.76,0 -16.73,-2.05 -23.91,-6.17 -7.18,-4.11 -12.84,-9.82 -17,-17.14 -4.15,-7.31 -6.23,-15.58 -6.23,-24.79zm121.51 -47.14l0 94.42 -12.32 0 0 -94.42 12.32 0zm76.81 73.42l-41.18 0 -7.59 21 -13 0 34.14 -93.88 14.22 0 34 93.88 -13 0 -7.59 -21zm-3.52 -10.03l-17.07 -47.69 -17.07 47.69 34.14 0zm51.34 21l33.06 0 0 10.03 -45.38 0 0 -94.42 12.32 0 0 84.39zm104.31 -84.39l0 10.02 -25.74 0 0 84.4 -12.33 0 0 -84.4 -25.88 0 0 -10.02 63.94 0zm81.28 0l-30.75 58.79 0 35.63 -12.32 0 0 -35.63 -30.89 -58.79 13.68 0 23.3 47.82 23.3 -47.82 13.68 0zm121.92 0l0 94.42 -12.33 0 0 -42.81 -48.09 0 0 42.81 -12.32 0 0 -94.42 12.32 0 0 41.45 48.09 0 0 -41.45 12.33 0zm63.8 95.37c-8.76,0 -16.75,-2.05 -23.98,-6.16 -7.22,-4.11 -12.94,-9.85 -17.14,-17.2 -4.2,-7.36 -6.3,-15.65 -6.3,-24.86 0,-9.21 2.1,-17.5 6.3,-24.85 4.2,-7.36 9.91,-13.1 17.14,-17.2 7.22,-4.11 15.22,-6.17 23.98,-6.17 8.85,0 16.89,2.05 24.12,6.17 7.22,4.11 12.91,9.82 17.07,17.14 4.16,7.31 6.23,15.62 6.23,24.92 0,9.3 -2.07,17.61 -6.23,24.93 -4.15,7.31 -9.84,13.02 -17.07,17.14 -7.23,4.11 -15.27,6.16 -24.12,6.16zm0 -10.7c6.59,0 12.53,-1.54 17.82,-4.6 5.28,-3.07 9.44,-7.45 12.46,-13.14 3.03,-5.69 4.54,-12.28 4.54,-19.78 0,-7.59 -1.51,-14.2 -4.54,-19.84 -3.03,-5.65 -7.16,-10 -12.39,-13.07 -5.24,-3.07 -11.2,-4.61 -17.88,-4.61 -6.68,0 -12.64,1.54 -17.88,4.61 -5.24,3.07 -9.37,7.43 -12.4,13.07 -3.02,5.65 -4.53,12.26 -4.53,19.84 0,7.5 1.51,14.09 4.53,19.78 3.03,5.69 7.18,10.07 12.47,13.14 5.28,3.07 11.22,4.6 17.81,4.6zm93.61 10.7c-6.23,0 -11.81,-1.11 -16.73,-3.32 -4.92,-2.21 -8.78,-5.28 -11.58,-9.21 -2.8,-3.93 -4.24,-8.46 -4.34,-13.61l13.14 0c0.45,4.43 2.28,8.15 5.49,11.18 3.2,3.03 7.88,4.54 14.02,4.54 5.87,0 10.5,-1.47 13.89,-4.41 3.39,-2.93 5.08,-6.71 5.08,-11.31 0,-3.61 -0.99,-6.55 -2.98,-8.81 -1.98,-2.26 -4.47,-3.97 -7.45,-5.14 -2.98,-1.18 -7,-2.44 -12.06,-3.8 -6.23,-1.63 -11.22,-3.25 -14.97,-4.88 -3.75,-1.63 -6.96,-4.18 -9.62,-7.65 -2.66,-3.48 -3.99,-8.15 -3.99,-14.02 0,-5.15 1.31,-9.71 3.93,-13.68 2.61,-3.97 6.3,-7.04 11.04,-9.21 4.74,-2.17 10.18,-3.25 16.32,-3.25 8.85,0 16.1,2.21 21.74,6.64 5.65,4.43 8.83,10.29 9.55,17.61l-13.55 0c-0.45,-3.61 -2.35,-6.8 -5.69,-9.55 -3.34,-2.76 -7.77,-4.13 -13.28,-4.13 -5.15,0 -9.35,1.33 -12.6,3.99 -3.25,2.66 -4.88,6.39 -4.88,11.18 0,3.43 0.97,6.23 2.91,8.4 1.94,2.17 4.34,3.82 7.18,4.95 2.85,1.13 6.84,2.42 11.99,3.86 6.23,1.72 11.24,3.41 15.04,5.08 3.8,1.67 7.04,4.25 9.75,7.72 2.71,3.48 4.06,8.2 4.06,14.16 0,4.6 -1.22,8.94 -3.66,13 -2.44,4.06 -6.05,7.36 -10.84,9.89 -4.78,2.53 -10.43,3.79 -16.93,3.79zm112.71 -67.73c0,7.86 -2.68,14.38 -8.06,19.58 -5.37,5.19 -13.57,7.79 -24.59,7.79l-18.15 0 0 39.42 -12.32 0 0 -94.42 30.48 0c10.66,0 18.76,2.57 24.32,7.72 5.55,5.15 8.33,11.79 8.33,19.91zm-32.65 17.2c6.87,0 11.92,-1.49 15.18,-4.47 3.25,-2.98 4.88,-7.22 4.88,-12.73 0,-11.65 -6.68,-17.47 -20.05,-17.47l-18.15 0 0 34.68 18.15 0zm60.28 -44.84l0 94.42 -12.32 0 0 -94.42 12.32 0zm79.11 0l0 10.02 -25.74 0 0 84.4 -12.33 0 0 -84.4 -25.88 0 0 -10.02 63.94 0zm70.99 73.42l-41.18 0 -7.59 21 -13 0 34.14 -93.88 14.22 0 34 93.88 -13 0 -7.59 -21zm-3.52 -10.03l-17.07 -47.69 -17.07 47.69 34.14 0zm51.34 21l33.06 0 0 10.03 -45.38 0 0 -94.42 12.32 0 0 84.39z" class="fil6"/>
  </g>
 </g>
</svg>