<svg width="201" height="56" viewBox="0 0 201 56" fill="none" xmlns="http://www.w3.org/2000/svg">
<mask id="path-1-inside-1_8740_14321" fill="white">
<path d="M72.7502 12.7025C72.7502 6.32487 77.9203 1.15479 84.2979 1.15479H188.227C194.605 1.15479 199.775 6.32486 199.775 12.7025V43.8812C199.775 50.2588 194.605 55.4289 188.227 55.4289H75.0598C73.7843 55.4289 72.7502 54.3949 72.7502 53.1193V12.7025Z"/>
</mask>
<path d="M72.7502 12.7025C72.7502 5.6871 78.4373 1.72853e-05 85.4527 1.72853e-05H190.537C197.552 1.72853e-05 203.239 5.6871 203.239 12.7025L196.31 12.7025C196.31 6.96262 192.691 2.30955 188.227 2.30955H84.2979C77.9203 2.30955 72.7502 6.96262 72.7502 12.7025V12.7025ZM199.775 55.4289H72.7502H199.775ZM72.7502 55.4289V1.15479V55.4289ZM190.537 1.72853e-05C197.552 1.72853e-05 203.239 5.6871 203.239 12.7025V40.4169C203.239 48.7078 196.518 55.4289 188.227 55.4289H188.227C192.691 55.4289 196.31 50.2588 196.31 43.8812V12.7025C196.31 6.96262 192.691 2.30955 188.227 2.30955L190.537 1.72853e-05Z" fill="url(#paint0_linear_8740_14321)" mask="url(#path-1-inside-1_8740_14321)"/>
<path d="M120.096 42.7264C120.096 36.3488 125.266 31.1787 131.644 31.1787H200.049V43.8812C200.049 50.2588 194.878 55.4288 188.501 55.4288H122.405C121.13 55.4288 120.096 54.3948 120.096 53.1193V42.7264Z" fill="url(#paint1_linear_8740_14321)"/>
<path d="M139.422 50.8038V48.9008L143.154 45.0023C143.893 44.2263 144.46 43.6104 144.854 43.1546C145.261 42.6866 145.544 42.2863 145.704 41.9537C145.864 41.6211 145.944 41.2824 145.944 40.9375C145.944 40.3586 145.76 39.9028 145.39 39.5703C145.033 39.2377 144.571 39.0714 144.004 39.0714C143.413 39.0714 142.902 39.2438 142.471 39.5887C142.04 39.9213 141.726 40.414 141.528 41.0668L139.33 40.3832C139.478 39.6565 139.779 39.0283 140.235 38.4986C140.691 37.9567 141.245 37.544 141.898 37.2607C142.563 36.9651 143.265 36.8173 144.004 36.8173C144.891 36.8173 145.667 36.9774 146.332 37.2977C147.01 37.6179 147.533 38.0675 147.903 38.6464C148.285 39.2254 148.476 39.9028 148.476 40.6788C148.476 41.1715 148.383 41.6581 148.198 42.1385C148.014 42.6188 147.737 43.1115 147.367 43.6166C146.997 44.1093 146.517 44.6635 145.926 45.2794L142.692 48.6791H148.66V50.8038H139.422ZM156.4 50.8038V47.7737H150.081V45.6674L156.252 37.039H158.876V45.6674H160.89V47.7737H158.876V50.8038H156.4ZM151.929 46.5728L151.486 45.6674H156.4V39.016L157.047 39.2192L151.929 46.5728ZM161.801 53.021L167.935 37.7781H170.577L164.443 53.021H161.801ZM172.182 50.8038L177.91 39.1638H171.424V37.039H180.552V39.1638L174.953 50.8038H172.182Z" fill="#F8F8F8"/>
<path d="M23.6817 17.4372C16.9246 12.5692 8.80931 9.48537 0 8.85022L12.0793 29.459C15.1832 24.7748 19.1301 20.7174 23.6859 17.4372H23.6817Z" fill="url(#paint2_linear_8740_14321)"/>
<path d="M35.2884 29.459L47.3677 8.85022C38.5584 9.48537 30.4431 12.5692 23.686 17.4372C28.2418 20.7174 32.1888 24.779 35.2927 29.459H35.2884Z" fill="url(#paint3_linear_8740_14321)"/>
<path d="M12.0791 29.4591L23.6858 49.2614L35.2924 29.4591C32.1885 24.7749 28.2416 20.7175 23.6858 17.4373C19.13 20.7175 15.183 24.779 12.0791 29.4591Z" fill="url(#paint4_linear_8740_14321)"/>
<path d="M23.6816 11.9926C26.1836 11.9926 28.2119 9.30793 28.2119 5.99628C28.2119 2.68463 26.1836 0 23.6816 0C21.1796 0 19.1514 2.68463 19.1514 5.99628C19.1514 9.30793 21.1796 11.9926 23.6816 11.9926Z" fill="url(#paint5_linear_8740_14321)"/>
<path d="M68.7027 19.8749C68.6361 18.0711 68.5667 15.8895 68.5667 13.7079H68.5203C68.0225 15.6225 67.3857 17.7586 66.7952 19.517L64.9341 25.3715H62.2336L60.6011 19.5823C60.1033 17.8012 59.6025 15.6651 59.2176 13.705H59.1712C59.1047 15.7304 59.0121 18.0455 58.9223 19.9175L58.6271 25.6158H55.4287L56.4041 10.6116H61.0092L62.5057 15.6196C63.0035 17.3552 63.4579 19.2272 63.7995 20.9856H63.8892C64.2973 19.2499 64.8183 17.2672 65.3422 15.5969L66.9515 10.6116H71.4872L72.3034 25.6158H68.9458L68.6969 19.872L68.7027 19.8749Z" fill="#0088B1"/>
<path d="M84.058 19.2756H78.4312V22.8378H84.7151V25.6216H74.9839V10.6145H84.3967V13.3983H78.4312V16.5145H84.058V19.2756Z" fill="#0088B1"/>
<path d="M87.0769 10.836C88.3476 10.6344 90.0032 10.5009 91.7283 10.5009C94.6546 10.5009 96.5592 11.0349 98.0122 12.103C99.6012 13.262 100.597 15.1084 100.597 17.7587C100.597 20.6306 99.5318 22.6105 98.0787 23.8348C96.4694 25.1472 93.9947 25.7721 91.0018 25.7721C89.2101 25.7721 87.9163 25.6613 87.0769 25.5505V10.836ZM90.5242 23.0593C90.8194 23.1275 91.3173 23.1275 91.7254 23.1275C94.8775 23.1502 96.9441 21.4572 96.9441 17.8723C96.9441 14.7561 95.083 13.1086 92.0901 13.1086C91.3404 13.1086 90.8194 13.1739 90.5242 13.2421V23.0593Z" fill="#0088B1"/>
<path d="M106.334 10.6145V25.6187H102.886V10.6145H106.334Z" fill="#0088B1"/>
<path d="M112.936 25.6187L108.036 10.6145H111.824L113.686 16.9605C114.207 18.7643 114.684 20.4545 115.046 22.3264H115.115C115.5 20.5226 115.978 18.7416 116.499 17.0287L118.45 10.6173H122.126L116.977 25.6216H112.939L112.936 25.6187Z" fill="#0088B1"/>
<path d="M132.853 19.2756H127.226V22.8378H133.51V25.6216H123.779V10.6145H133.191V13.3983H127.226V16.5145H132.853V19.2756Z" fill="#0088B1"/>
<path d="M135.869 10.8161C136.98 10.6372 138.613 10.5037 140.474 10.5037C142.743 10.5037 144.329 10.8389 145.418 11.6825C146.347 12.3955 146.848 13.4636 146.848 14.8442C146.848 16.736 145.464 18.0512 144.147 18.5171V18.5853C145.212 19.0085 145.803 19.9885 146.188 21.3691C146.665 23.082 147.117 25.042 147.412 25.6215H143.872C143.646 25.1756 143.258 23.974 142.83 22.1275C142.399 20.2357 141.742 19.7443 140.312 19.7244H139.29V25.6244H135.866V10.8161H135.869ZM139.296 17.2701H140.656C142.381 17.2701 143.4 16.4235 143.4 15.1112C143.4 13.7988 142.448 13.0404 140.859 13.0404C140.02 13.0404 139.542 13.0858 139.293 13.1511V17.2701H139.296Z" fill="#0088B1"/>
<path d="M149.435 22.1248C150.341 22.5935 151.794 23.0593 153.267 23.0593C154.856 23.0593 155.696 22.4145 155.696 21.4345C155.696 20.4545 154.969 19.9659 153.131 19.341C150.59 18.4518 148.911 17.0713 148.911 14.8897C148.911 12.3303 151.111 10.3929 154.694 10.3929C156.44 10.3929 157.687 10.7281 158.596 11.1486L157.823 13.8642C157.233 13.5745 156.121 13.1512 154.648 13.1512C153.175 13.1512 152.425 13.8415 152.425 14.5971C152.425 15.5544 153.264 15.9776 155.262 16.7134C157.962 17.6934 159.21 19.0739 159.21 21.1874C159.21 23.7042 157.259 25.8403 153.062 25.8403C151.314 25.8403 149.591 25.3716 148.729 24.9058L149.432 22.1219L149.435 22.1248Z" fill="#0088B1"/>
<path d="M165.132 21.7668L164.043 25.6187H160.483L165.135 10.6145H169.67L174.434 25.6187H170.692L169.511 21.7668H165.135H165.132ZM169.01 19.2302L168.058 16.0458C167.786 15.1567 167.514 14.0432 167.288 13.1512H167.242C167.016 14.0403 166.787 15.1766 166.538 16.0458L165.632 19.2302H169.013H169.01Z" fill="#0088B1"/>
<path d="M176.472 10.6145H179.919V22.7696H185.998V25.6187H176.469V10.6145H176.472Z" fill="#0088B1"/>
<defs>
<linearGradient id="paint0_linear_8740_14321" x1="142.002" y1="-13.8572" x2="142.002" y2="60.914" gradientUnits="userSpaceOnUse">
<stop stop-color="#0088B1"/>
<stop offset="1" stop-color="#25B498"/>
</linearGradient>
<linearGradient id="paint1_linear_8740_14321" x1="158.627" y1="62.3574" x2="158.627" y2="-26.271" gradientUnits="userSpaceOnUse">
<stop stop-color="#25B498"/>
<stop offset="1" stop-color="#0088B1"/>
</linearGradient>
<linearGradient id="paint2_linear_8740_14321" x1="0" y1="19.1546" x2="23.6817" y2="19.1546" gradientUnits="userSpaceOnUse">
<stop stop-color="#31B0CD"/>
<stop offset="1" stop-color="#21B685"/>
</linearGradient>
<linearGradient id="paint3_linear_8740_14321" x1="23.6818" y1="19.1546" x2="47.3634" y2="19.1546" gradientUnits="userSpaceOnUse">
<stop stop-color="#31B0CD"/>
<stop offset="1" stop-color="#81D3EB"/>
</linearGradient>
<linearGradient id="paint4_linear_8740_14321" x1="23.6815" y1="19.4221" x2="23.6815" y2="49.8924" gradientUnits="userSpaceOnUse">
<stop stop-color="#0077C0"/>
<stop offset="1" stop-color="#191057"/>
</linearGradient>
<linearGradient id="paint5_linear_8740_14321" x1="19.1514" y1="5.99628" x2="28.2119" y2="5.99628" gradientUnits="userSpaceOnUse">
<stop stop-color="#31B0CD"/>
<stop offset="1" stop-color="#81D3EB"/>
</linearGradient>
</defs>
</svg>
